PathFileType	4	(X/Y/Z)	C:/Users/beibeiliu/ov580/test_trc/User2\sequence.13_training_dense_right.trc
DataRate	CameraRate	NumFrames	NumMarkers	Units	OrigDataRate	OrigDataStartFrame	OrigNumFrames
120	120	20	19	mm	120	43	336
Frame#	Time	ThumbCMC			ThumbMCP			ThumbIP			ThumbTip			IndexMCP			IndexPIP			IndexTip			MiddleMCP			MiddlePIP			MiddleTip			RingMCP			RingPIP			RingTip			PinkyMCP			PinkyPIP			PinkyTip			BackHand1			BackHand2			BackHand3	
		X0	Y0	Z0	X1	Y1	Z1	X2	Y2	Z2	X3	Y3	Z3	X4	Y4	Z4	X5	Y5	Z5	X6	Y6	Z6	X7	Y7	Z7	X8	Y8	Z8	X9	Y9	Z9	X10	Y10	Z10	X11	Y11	Z11	X12	Y12	Z12	X13	Y13	Z13	X14	Y14	Z14	X15	Y15	Z15	X16	Y16	Z16	X17	Y17	Z17	X18	Y18	Z18	
42	0.35	126.109	9.47712	70.2012	111.594	37.4819	55.8198	85.3048	55.9644	34.854	56.5826	56.2607	25.9549	84.7864	-27.2349	5.98775	66.129	-24.1854	-15.8362	40.7592	-3.13343	-21.8625	59.0072	-46.7993	15.2405	31.0327	-39.0793	-0.767209	7.43648	-6.0417	1.96554	37.5145	-28.3107	37.9051	22.9614	-0.737642	43.5386	47.9476	13.1469	63.6669	29.9796	-29.2441	66.9418	27.8591	4.01299	73.7624	59.7973	6.52363	87.47	87.7207	-52.4698	75.7439	105.774	-53.1887	99.2249	118.846	-32.4017	65.0165	
43	0.358333	137.408	6.60958	67.3833	123.349	31.9623	51.2324	103.353	52.3974	30.5949	78.259	57.5013	20.8458	93.1497	-29.4163	8.74645	73.5556	-24.0536	-23.0021	52.3112	-3.33639	-28.7256	67.3623	-43.7293	16.3415	38.7449	-34.5176	-7.63586	17.7163	-4.35519	-7.41692	43.4706	-27.4964	34.8839	32.2513	5.00481	37.4813	54.1854	15.8067	61.3445	33.5278	-23.2026	61.5061	37.1997	9.75687	64.8633	65.2851	11.3592	80.961	90.3222	-51.3167	74.7678	108.454	-54.314	98.3018	122.843	-37.4173	69.362	
44	0.366667	140.323	1.93264	66.0069	134.313	28.2833	49.1154	116.652	49.4791	26.9157	91.812	57.2802	14.0566	100.895	-32.5296	1.99375	84.8806	-27.6228	-23.2791	58.5322	-4.91097	-30.6084	72.5278	-44.3818	11.2753	42.9532	-34.8903	-8.6119	25.0431	-2.058	-12.2427	47.2153	-23.3869	30.2729	40.1019	7.62337	32.0194	62.404	18.1286	55.8859	43.9106	-20.1599	55.5759	43.8652	12.9078	60.7904	72.2292	14.0382	72.3078	91.5588	-52.6733	70.3014	112.228	-52.796	101.52	129.893	-38.3905	67.893	
45	0.375	147.5	0.586955	66.1945	141.787	27.6155	44.5581	127.185	49.1347	20.6938	101.901	57.6639	6.68799	107.117	-33.407	6.43984	92.2981	-28.415	-24.5369	68.3359	-3.50777	-34.6232	80.3423	-44.888	9.84078	54.379	-36.1171	-12.6231	32.4106	-2.21454	-15.2954	57.9735	-25.0287	29.0426	46.7284	7.26128	28.1046	69.6328	20.9173	51.4402	45.4702	-19.1676	53.0542	48.4318	11.1028	53.5281	74.9474	18.6959	74.3237	98.8378	-49.9146	70.6733	114.836	-55.3272	102.438	135.448	-38.8025	63.875	
46	0.383333	155.196	2.26254	64.803	147.393	26.1651	44.853	132.167	49.0024	17.5041	111.027	55.5694	7.78534	116.385	-32.6628	2.61213	97.2217	-31.3559	-24.436	73.3808	-5.23011	-35.3941	86.2735	-46.1391	9.78478	60.1463	-36.2472	-15.5807	40.4666	-4.00698	-18.2123	64.2579	-26.9062	25.8899	52.6464	5.21139	23.8251	74.8239	19.9928	48.0174	49.2319	-20.2298	50.4152	54.1476	14.233	54.8609	80.9381	16.7086	67.561	97.9549	-51.2822	69.3471	117.142	-55.1554	97.8019	137.643	-40.5776	66.2912	
47	0.391667	158.796	2.81514	69.0706	153.278	30.592	43.4562	138.876	50.0317	18.3846	112.621	51.3919	4.82581	129.044	-31.9889	1.6791	108.66	-33.1432	-27.4033	90.372	-9.12433	-40.6277	96.6517	-50.353	6.34215	71.7531	-39.58	-21.2749	53.2645	-6.87412	-26.3395	73.3569	-31.9555	22.3898	58.1299	0.0137212	21.0045	78.5523	16.0533	43.013	60.2579	-25.6377	45.1092	61.6841	6.50589	45.1913	85.8169	14.5024	63.0558	110.12	-54.3618	69.8536	129.474	-53.1057	99.1262	148.955	-37.9232	68.9658	
48	0.4	161.827	12.2932	69.0422	151.418	37.7597	46.7622	132.095	52.8508	18.3555	109.992	52.4759	4.97346	141.74	-31.5901	-4.35911	131.447	-28.7853	-30.9214	102.899	-13.5308	-41.8103	117.141	-52.1221	0.804732	95.7794	-45.3802	-27.5294	69.2686	-17.2192	-32.8607	89.3356	-39.1419	13.5409	68.9481	-15.1524	11.3168	84.1786	6.08907	43.0294	73.9318	-38.611	39.5442	63.3045	-6.01031	42.8023	88.1239	5.29654	59.3754	126.006	-54.9202	67.5632	139.819	-54.1453	95.0877	160.121	-32.2025	67.4117	
49	0.408333	155.951	17.6665	70.4098	139.014	40.5704	45.3641	119.89	54.3249	23.5451	97.5937	44.9979	4.92207	153.809	-21.6651	-1.13443	139.843	-21.788	-33.8733	110.607	-9.05714	-43.8414	139.785	-43.9151	-0.945675	112.001	-46.1753	-32.5906	84.357	-25.2538	-37.0178	101.286	-45.2489	9.64619	80.543	-22.7877	6.14988	87.1447	-2.53601	39.9586	90.8637	-47.6275	32.2578	71.2427	-19.9957	38.6372	89.4698	-4.21321	57.6195	141.018	-54.2498	61.5766	152.02	-47.974	92.2165	168.54	-24.3711	68.3127	
50	0.416667	146.046	26.6678	72.7812	122.434	43.9567	52.6339	101.473	49.2213	28.3132	83.8347	36.668	5.12538	163.912	-5.91945	-1.42655	152.512	-7.01063	-32.9586	121.742	-3.7121	-44.206	154.858	-33.7555	-7.46647	135.526	-35.1262	-35.3496	96.6683	-29.5236	-40.2894	117.649	-46.7076	5.42169	90.1124	-32.3721	3.32731	88.937	-14.7985	38.8695	104.767	-53.2688	26.3208	82.7915	-29.6354	31.6927	92.4832	-18.2444	59.9843	156.14	-46.0354	56.0267	163.888	-43.159	89.9418	170.327	-13.3102	71.6029	
51	0.425	130.145	28.1302	82.6452	104.608	34.2395	56.2978	82.8883	35.973	33.4158	71.0158	24.4817	8.71518	161.619	10.7343	6.40425	154.132	10.2413	-25.3813	122.281	8.85356	-41.3939	163.566	-15.8143	-1.06442	148.528	-19.8782	-35.075	108.216	-20.3163	-44.3106	133.831	-41.7303	3.07303	100.222	-32.9785	0.0185542	92.9294	-25.0719	35.31	120.664	-54.0987	19.8861	92.4462	-44.8128	28.896	100.494	-25.9742	58.7665	166.563	-35.3059	55.833	170.356	-37.6077	91.887	169.143	1.13277	74.8666	
52	0.433333	112.795	20.1459	87.3145	84.1446	19.432	64.3259	65.2679	16.3525	37.3825	55.5945	7.75539	13.7723	149.131	28.4636	9.95507	140.016	32.24	-21.0854	113.373	13.2969	-36.796	163.855	4.48637	0.176471	149.954	1.87923	-32.1365	116.302	-17.1761	-43.0846	142.466	-26.9994	-0.784625	113.14	-35.6417	-4.34912	100.033	-34.6513	31.2959	138.121	-48.6896	16.5316	105.878	-48.802	23.7324	106.821	-35.6296	53.5681	172.082	-22.0466	58.4621	171.758	-22.5424	95.8892	157.96	8.76401	80.0559	
53	0.441667	100.225	7.67172	91.3947	72.0109	2.19671	68.8649	53.3642	-3.53099	43.555	49.1551	-12.4166	12.201	131.648	35.6532	20.2072	127.103	39.6944	-10.9883	107.761	19.3957	-31.1033	152.689	20.6985	7.49603	144.494	12.4113	-31.4045	119.903	-11.8781	-42.8037	146.973	-18.5327	-1.42593	122.485	-35.0038	-8.0582	105.697	-36.7961	27.4001	149.262	-43.3096	15.3169	118.991	-55.885	20.061	112.067	-41.3229	48.7093	169.941	-9.21655	63.2098	170.442	-13.2417	96.2459	145.261	16.5058	84.7977	
54	0.45	94.8507	-4.15527	92.4712	70.0843	-13.2134	70.9353	49.4067	-18.8242	41.1751	46.6621	-28.1201	17.2145	117.816	37.1354	20.4613	108.192	40.6517	-10.8683	95.48	19.2996	-29.3752	142.597	26.1753	8.66622	135.255	18.65	-28.7502	115.352	-6.12046	-41.6295	142.165	-11.0963	-0.0257067	125.902	-34.6309	-9.10919	110.175	-43.4313	22.4254	149.5	-37.9887	12.1007	122.805	-54.4993	19.7258	118.964	-44.8304	53.0587	160.702	-1.15783	62.0279	166.323	-9.12649	97.3821	134.129	16.751	84.5731	
55	0.458333	89.9325	-10.3671	91.6183	66.148	-20.2697	67.2578	47.0128	-29.8667	42.747	49.5556	-38.0807	13.2855	105.318	33.9481	23.5932	100.07	37.1655	-7.80863	89.0463	16.1974	-28.623	134.779	25.7486	11.0103	129.894	20.5148	-25.3289	112.772	-12.2175	-41.7265	142.383	-11.1657	3.29107	119.683	-34.1559	-7.10837	112.757	-48.7071	25.2337	149.934	-34.4053	14.8718	125.556	-58.5267	20.5428	117.506	-46.9435	49.786	156.845	1.53733	62.8387	159.998	-7.07004	98.7885	123.389	14.5512	86.4168	
56	0.466667	84.4425	-12.8297	90.7475	60.3729	-26.1236	67.2113	45.2536	-34.9455	39.2035	46.5018	-44.0919	12.7491	101.194	29.876	21.6195	92.4067	35.039	-6.22463	82.5674	10.5677	-31.1299	129.517	24.0304	11.6822	128.642	18.9623	-23.8957	112.039	-12.1316	-41.8098	135.517	-11.5216	4.0311	122.462	-40.2107	-7.44039	113.053	-51.0579	25.1842	145.521	-34.5858	14.9233	125.535	-61.0698	20.89	121.312	-51.5177	52.6395	152.506	-0.623946	65.0197	154.811	-4.73676	98.4637	120.424	11.346	84.9059	
57	0.475	79.2937	-15.0226	90.897	55.1543	-27.4271	64.5127	38.4718	-38.7587	35.2833	44.1791	-48.2047	14.3875	95.5244	26.4886	22.1123	91.1702	30.4493	-10.9168	82.5691	4.10407	-33.132	128.531	19.7961	9.92552	125.087	14.321	-28.159	113.342	-17.3954	-42.625	136.291	-16.7882	3.89809	120.793	-42.9015	-7.3737	106.853	-51.1667	27.1157	145.462	-41.0009	13.9823	121.63	-60.8656	21.3999	116.892	-51.2677	55.7238	145.639	0.0762814	65.4314	150.558	-4.94671	95.6978	116.591	9.78856	83.9349	
58	0.483333	75.5983	-15.7032	87.3246	51.7457	-30.752	67.2811	34.3177	-41.8399	39.7879	41.4327	-53.0047	12.2639	95.5051	19.8756	18.5477	87.1284	23.1691	-15.2056	80.3737	-2.00418	-34.8667	126.211	13.9367	10.3418	127.669	4.51792	-29.557	109.497	-26.7165	-44.0777	130.956	-20.7807	3.88468	120.113	-51.1295	-3.1854	106.113	-56.9842	27.7032	144.112	-45.3134	17.6809	120.536	-67.803	25.3543	113.634	-58.0303	56.8728	144.981	-5.83527	66.3067	146.744	-7.55276	101.447	112.366	7.82076	84.9922	
59	0.491667	71.8948	-19.2794	88.2178	44.8447	-33.8582	67.9957	35.7117	-48.1308	37.8823	36.2739	-60.9535	16.0541	89.2235	12.3524	16.0782	87.6851	10.8028	-16.3767	82.7937	-16.7234	-37.0382	123.865	5.43871	5.40962	124.714	-6.39341	-29.733	112.16	-37.8096	-42.6389	131.549	-31.7406	4.55405	117.768	-60.9022	-0.985903	105.483	-65.5321	32.2166	142.535	-52.3158	22.3721	119.466	-76.4919	29.4276	110.123	-62.8994	56.4407	139.074	-9.24467	62.2548	141.484	-8.76814	101.32	108.903	4.94375	84.2809	
60	0.5	63.048	-22.4684	92.6219	44.0052	-39.4234	70.7302	26.8525	-55.5215	44.552	27.8806	-71.2066	19.5775	86.5665	2.21109	12.0728	79.6521	-4.81692	-20.5593	72.8322	-32.7993	-37.5166	115.178	-4.77054	8.08649	115.242	-17.5929	-27.752	105.445	-58.2505	-38.9745	125.784	-44.5806	5.09018	112.413	-70.9275	4.50894	99.6334	-73.2028	39.0548	137.646	-61.9775	27.0834	110.234	-81.128	35.3702	105.977	-71.6458	63.4564	135.659	-14.0066	64.0207	136.542	-10.6283	99.7424	102.532	1.51961	79.7755	
61	0.508333	57.3927	-27.5808	92.4027	32.3239	-46.812	79.1244	17.479	-66.2961	52.0378	23.9712	-81.8629	31.113	75.1585	-9.79544	17.5367	73.5333	-18.9721	-17.7513	63.5916	-44.6663	-31.5874	108.759	-18.5053	9.57029	104.949	-33.6005	-27.3292	93.944	-68.9467	-34.467	114.478	-52.3002	10.2776	103.718	-80.038	7.2702	91.5913	-84.0812	42.7256	125.955	-70.1986	28.9026	107.738	-91.9874	40.8705	96.7019	-73.0679	70.5267	127.349	-21.3085	63.7726	129.715	-13.9545	98.6993	91.7999	-3.56189	81.5862	
